<?xml version="1.0" standalone="no"?>
<!DOCTYPE svg PUBLIC "-//W3C//DTD SVG 20010904//EN"
 "http://www.w3.org/TR/2001/REC-SVG-20010904/DTD/svg10.dtd">
<svg version="1.0" xmlns="http://www.w3.org/2000/svg"
 width="1280.000000pt" height="1115.000000pt" viewBox="0 0 1280.000000 1115.000000"
 preserveAspectRatio="xMidYMid meet">

<g transform="translate(0.000000,1115.000000) scale(0.100000,-0.100000)"
fill="#000000" stroke="none">
<path d="M6305 11137 c-63 -21 -98 -42 -141 -86 -48 -47 -6108 -10535 -6131
-10610 -47 -150 37 -330 186 -400 l56 -26 6125 0 6125 0 56 26 c154 73 236
255 182 409 -18 52 -6036 10485 -6092 10561 -62 85 -148 130 -256 136 -41 1
-87 -3 -110 -10z m2820 -5730 l2720 -4712 -2722 -3 c-1498 -1 -3948 -1 -5446
0 l-2722 3 2720 4712 c1496 2592 2722 4713 2725 4713 3 0 1229 -2121 2725
-4713z"/>
<path d="M4940 6278 c-220 -135 -356 -243 -551 -438 -229 -229 -386 -443 -525
-715 -187 -368 -296 -792 -306 -1190 l-2 -100 994 0 995 0 2 30 c11 131 45
261 93 355 59 117 170 243 277 317 31 21 52 42 49 50 -7 17 -976 1696 -984
1705 -4 4 -23 -3 -42 -14z"/>
<path d="M7782 6233 c-254 -437 -944 -1636 -948 -1646 -3 -8 17 -28 49 -50
107 -74 218 -200 277 -317 48 -94 82 -224 93 -355 l2 -30 994 0 995 0 -3 105
c-10 394 -119 819 -305 1185 -139 272 -295 485 -525 716 -173 172 -271 253
-444 368 -157 105 -140 102 -185 24z"/>
<path d="M6319 4400 c-491 -75 -660 -694 -274 -1007 104 -84 216 -123 355
-123 201 0 371 94 482 265 59 91 83 179 83 305 0 118 -15 175 -71 277 -109
197 -351 317 -575 283z"/>
<path d="M5475 2238 c-456 -791 -495 -863 -479 -875 32 -23 187 -100 294 -146
217 -92 457 -159 712 -199 207 -31 589 -31 798 1 196 29 407 82 570 142 129
48 394 171 433 201 18 13 -11 65 -478 875 l-498 862 -56 -29 c-219 -110 -523
-110 -742 0 l-56 29 -498 -861z"/>
</g>
</svg>
